<?xml version="1.0" encoding="UTF-8"?>
<!DOCTYPE svg PUBLIC "-//W3C//DTD SVG 1.1//EN" "http://www.w3.org/Graphics/SVG/1.1/DTD/svg11.dtd">
<!-- Creator: CorelDRAW X8 -->
<svg xmlns="http://www.w3.org/2000/svg" xml:space="preserve" width="18.1573mm" height="27.4358mm" version="1.1" style="shape-rendering:geometricPrecision; text-rendering:geometricPrecision; image-rendering:optimizeQuality; fill-rule:evenodd; clip-rule:evenodd"
viewBox="0 0 550 831"
 xmlns:xlink="http://www.w3.org/1999/xlink">
 <defs>
  <style type="text/css">
   <![CDATA[
    .str1 {stroke:#FEFEFE;stroke-width:22.7299}
    .str0 {stroke:#FEFEFE;stroke-width:2.30936}
    .fil2 {fill:none}
    .fil1 {fill:none;fill-rule:nonzero}
    .fil3 {fill:#FEFEFE}
    .fil0 {fill:#FEFEFE;fill-rule:nonzero}
   ]]>
  </style>
 </defs>
 <g id="Layer_x0020_1">
  <metadata id="CorelCorpID_0Corel-Layer"/>
  <path class="fil0" d="M385 456l91 0 -137 -308 -86 0 -136 308 89 0 24 -60 131 0 24 60zm-129 -124l40 -99 39 99 -79 0z"/>
  <path id="1" class="fil1 str0" d="M385 456l91 0 -137 -308 -86 0 -136 308 89 0 24 -60 131 0 24 60zm-129 -124l40 -99 39 99 -79 0z"/>
  <path class="fil2 str1" d="M144 820l-133 0 0 -809 152 0m231 0l145 0 0 809 -136 0"/>
  <polygon class="fil3 str0" points="175,811 275,712 375,811 360,826 275,742 191,827 "/>
  <polygon class="fil3 str0" points="59,698 159,599 258,697 243,712 159,629 74,713 "/>
  <polygon class="fil3 str0" points="292,698 392,599 492,697 477,712 392,629 307,713 "/>
  <polygon class="fil3 str0" points="175,584 275,485 375,584 360,599 275,515 191,599 "/>
 </g>
</svg>
