<?xml version="1.0" encoding="UTF-8"?>
<!DOCTYPE svg PUBLIC "-//W3C//DTD SVG 1.1//EN" "http://www.w3.org/Graphics/SVG/1.1/DTD/svg11.dtd">
<!-- Creator: CorelDRAW X8 -->
<svg xmlns="http://www.w3.org/2000/svg" xml:space="preserve" width="18.1573mm" height="27.4358mm" version="1.1" style="shape-rendering:geometricPrecision; text-rendering:geometricPrecision; image-rendering:optimizeQuality; fill-rule:evenodd; clip-rule:evenodd"
viewBox="0 0 315 477"
 xmlns:xlink="http://www.w3.org/1999/xlink">
 <defs>
  <style type="text/css">
   <![CDATA[
    .str1 {stroke:#FEFEFE;stroke-width:13.0287}
    .str0 {stroke:#FEFEFE;stroke-width:1.32371}
    .fil2 {fill:none}
    .fil1 {fill:none;fill-rule:nonzero}
    .fil3 {fill:#FEFEFE}
    .fil0 {fill:#FEFEFE;fill-rule:nonzero}
   ]]>
  </style>
 </defs>
 <g id="Layer_x0020_1">
  <metadata id="CorelCorpID_0Corel-Layer"/>
  <path class="fil0" d="M168 265c33,0 59,-12 76,-33l-32 -29c-11,13 -24,20 -41,20 -29,0 -49,-20 -49,-50 0,-30 20,-50 49,-50 17,0 30,7 41,20l32 -29c-17,-21 -43,-33 -76,-33 -56,0 -97,38 -97,92 0,54 41,92 97,92z"/>
  <path id="1" class="fil1 str0" d="M168 265c33,0 59,-12 76,-33l-32 -29c-11,13 -24,20 -41,20 -29,0 -49,-20 -49,-50 0,-30 20,-50 49,-50 17,0 30,7 41,20l32 -29c-17,-21 -43,-33 -76,-33 -56,0 -97,38 -97,92 0,54 41,92 97,92z"/>
  <path class="fil2 str1" d="M82 470l-75 0 0 -463 86 0m133 0l83 0 0 463 -78 0"/>
  <polygon class="fil3 str0" points="101,465 158,408 215,465 206,474 158,426 109,474 "/>
  <polygon class="fil3 str0" points="34,400 91,343 148,400 139,408 91,360 42,409 "/>
  <polygon class="fil3 str0" points="167,400 225,343 282,400 273,408 225,360 176,409 "/>
  <polygon class="fil3 str0" points="101,335 158,278 215,334 206,343 158,295 109,343 "/>
 </g>
</svg>
