<?xml version="1.0" encoding="UTF-8"?>
<!DOCTYPE svg PUBLIC "-//W3C//DTD SVG 1.1//EN" "http://www.w3.org/Graphics/SVG/1.1/DTD/svg11.dtd">
<!-- Creator: CorelDRAW X8 -->
<svg xmlns="http://www.w3.org/2000/svg" xml:space="preserve" width="18.1573mm" height="27.4358mm" version="1.1" style="shape-rendering:geometricPrecision; text-rendering:geometricPrecision; image-rendering:optimizeQuality; fill-rule:evenodd; clip-rule:evenodd"
viewBox="0 0 503 760"
 xmlns:xlink="http://www.w3.org/1999/xlink">
 <defs>
  <style type="text/css">
   <![CDATA[
    .str1 {stroke:#FEFEFE;stroke-width:20.7749}
    .str0 {stroke:#FEFEFE;stroke-width:2.11073}
    .fil2 {fill:none}
    .fil1 {fill:none;fill-rule:nonzero}
    .fil3 {fill:#FEFEFE}
    .fil0 {fill:#FEFEFE;fill-rule:nonzero}
   ]]>
  </style>
 </defs>
 <g id="Layer_x0020_1">
  <metadata id="CorelCorpID_0Corel-Layer"/>
  <polygon class="fil0" points="212,417 291,417 291,135 212,135 "/>
  <polygon id="1" class="fil1 str0" points="212,417 291,417 291,135 212,135 "/>
  <path class="fil2 str1" d="M131 750l-121 0 0 -740 139 0m211 0l133 0 0 740 -125 0"/>
  <polygon class="fil3 str0" points="160,742 252,651 343,742 329,755 252,679 174,756 "/>
  <polygon class="fil3 str0" points="54,638 145,547 236,637 222,651 145,574 68,652 "/>
  <polygon class="fil3 str0" points="267,638 358,547 449,637 436,651 358,574 281,652 "/>
  <polygon class="fil3 str0" points="160,533 252,443 343,533 329,547 252,470 174,548 "/>
 </g>
</svg>
