<?xml version="1.0" encoding="UTF-8"?>
<!DOCTYPE svg PUBLIC "-//W3C//DTD SVG 1.1//EN" "http://www.w3.org/Graphics/SVG/1.1/DTD/svg11.dtd">
<!-- Creator: CorelDRAW X8 -->
<svg xmlns="http://www.w3.org/2000/svg" xml:space="preserve" width="18.1573mm" height="27.4358mm" version="1.1" style="shape-rendering:geometricPrecision; text-rendering:geometricPrecision; image-rendering:optimizeQuality; fill-rule:evenodd; clip-rule:evenodd"
viewBox="0 0 1483 2241"
 xmlns:xlink="http://www.w3.org/1999/xlink">
 <defs>
  <style type="text/css">
   <![CDATA[
    .str1 {stroke:#FEFEFE;stroke-width:61.2688}
    .str0 {stroke:#FEFEFE;stroke-width:6.22491}
    .fil2 {fill:none}
    .fil1 {fill:none;fill-rule:nonzero}
    .fil3 {fill:#FEFEFE}
    .fil0 {fill:#FEFEFE;fill-rule:nonzero}
   ]]>
  </style>
 </defs>
 <g id="Layer_x0020_1">
  <metadata id="CorelCorpID_0Corel-Layer"/>
  <path class="fil0" d="M930 1229l251 0 -179 -261c103,-50 163,-140 163,-262 0,-190 -143,-308 -369,-308l-380 0 0 831 235 0 0 -221 128 0 151 221zm-3 -523c0,75 -48,121 -146,121l-130 0 0 -244 130 0c98,0 146,45 146,123z"/>
  <path id="1" class="fil1 str0" d="M930 1229l251 0 -179 -261c103,-50 163,-140 163,-262 0,-190 -143,-308 -369,-308l-380 0 0 831 235 0 0 -221 128 0 151 221zm-3 -523c0,75 -48,121 -146,121l-130 0 0 -244 130 0c98,0 146,45 146,123z"/>
  <path class="fil2 str1" d="M387 2211l-356 0 0 -2180 409 0m622 0l391 0 0 2180 -367 0"/>
  <polygon class="fil3 str0" points="473,2187 742,1920 1011,2187 970,2227 742,2001 514,2229 "/>
  <polygon class="fil3 str0" points="158,1880 427,1613 696,1880 656,1920 427,1694 200,1922 "/>
  <polygon class="fil3 str0" points="787,1880 1056,1613 1325,1880 1285,1920 1056,1694 829,1922 "/>
  <polygon class="fil3 str0" points="473,1573 742,1306 1011,1573 970,1613 742,1387 514,1615 "/>
 </g>
</svg>
