<?xml version="1.0" encoding="UTF-8"?>
<!DOCTYPE svg PUBLIC "-//W3C//DTD SVG 1.1//EN" "http://www.w3.org/Graphics/SVG/1.1/DTD/svg11.dtd">
<!-- Creator: CorelDRAW X8 -->
<svg xmlns="http://www.w3.org/2000/svg" xml:space="preserve" width="127.018mm" height="34.5977mm" version="1.1" style="shape-rendering:geometricPrecision; text-rendering:geometricPrecision; image-rendering:optimizeQuality; fill-rule:evenodd; clip-rule:evenodd"
viewBox="0 0 12389 3375"
 xmlns:xlink="http://www.w3.org/1999/xlink">
 <defs>
  <style type="text/css">
   <![CDATA[
    .fil11 {fill:none}
    .fil1 {fill:#FEFEFE}
    .fil9 {fill:#FEFEFE;fill-rule:nonzero}
    .fil10 {fill:#EB9B33;fill-rule:nonzero}
    .fil5 {fill:url(#id0)}
    .fil2 {fill:url(#id1)}
    .fil8 {fill:url(#id2)}
    .fil0 {fill:url(#id3)}
    .fil7 {fill:url(#id4)}
    .fil3 {fill:url(#id5)}
    .fil6 {fill:url(#id6)}
    .fil4 {fill:url(#id7)}
   ]]>
  </style>
  <linearGradient id="id0" gradientUnits="userSpaceOnUse" x1="2118.34" y1="1787.48" x2="1852.65" y2="1505.44">
   <stop offset="0" style="stop-opacity:1; stop-color:#1D78B8"/>
   <stop offset="1" style="stop-opacity:1; stop-color:#73C4F1"/>
  </linearGradient>
  <linearGradient id="id1" gradientUnits="userSpaceOnUse" x1="1995.8" y1="2399.46" x2="1730.14" y2="2116.96">
   <stop offset="0" style="stop-opacity:1; stop-color:#265431"/>
   <stop offset="1" style="stop-opacity:1; stop-color:#49A236"/>
  </linearGradient>
  <linearGradient id="id2" gradientUnits="userSpaceOnUse" xlink:href="#id1" x1="1995.8" y1="1031.89" x2="1730.14" y2="749.39">
  </linearGradient>
  <linearGradient id="id3" gradientUnits="userSpaceOnUse" xlink:href="#id0" x1="1418.38" y1="2471.26" x2="1152.68" y2="2189.23">
  </linearGradient>
  <linearGradient id="id4" gradientUnits="userSpaceOnUse" xlink:href="#id0" x1="1418.38" y1="1103.69" x2="1152.68" y2="821.648">
  </linearGradient>
  <linearGradient id="id5" gradientUnits="userSpaceOnUse" xlink:href="#id0" x1="717.973" y1="1787.48" x2="452.283" y2="1505.44">
  </linearGradient>
  <linearGradient id="id6" gradientUnits="userSpaceOnUse" xlink:href="#id1" x1="2695.77" y1="1715.67" x2="2430.11" y2="1433.18">
  </linearGradient>
  <linearGradient id="id7" gradientUnits="userSpaceOnUse" xlink:href="#id1" x1="1295.4" y1="1715.67" x2="1029.75" y2="1433.18">
  </linearGradient>
 </defs>
 <g id="Layer_x0020_1">
  <metadata id="CorelCorpID_0Corel-Layer"/>
  <polygon class="fil0" points="1646,2241 1647,1583 1037,2192 1037,2845 "/>
  <polygon class="fil1" points="1036,2846 1647,2239 2257,2845 2245,2857 1647,2264 1048,2858 "/>
  <polygon class="fil2" points="1646,2239 1647,1583 2257,2192 2257,2845 "/>
  <polygon class="fil1" points="1048,2858 1647,2264 2246,2857 2156,2947 1647,2444 1140,2951 "/>
  <polygon class="fil3" points="946,1557 947,899 337,1508 336,2161 "/>
  <polygon class="fil1" points="335,2162 947,1556 1557,2161 1545,2173 947,1580 347,2174 "/>
  <polygon class="fil4" points="946,1555 947,899 1557,1508 1557,2161 "/>
  <polygon class="fil1" points="347,2174 947,1580 1545,2174 1455,2264 947,1760 440,2267 "/>
  <polygon class="fil5" points="2346,1557 2347,899 1737,1508 1737,2161 "/>
  <polygon class="fil1" points="1736,2162 2347,1556 2957,2161 2945,2173 2347,1580 1748,2174 "/>
  <polygon class="fil6" points="2346,1555 2347,899 2957,1508 2957,2161 "/>
  <polygon class="fil1" points="1748,2174 2347,1580 2946,2174 2856,2264 2347,1760 1840,2267 "/>
  <polygon class="fil7" points="1646,874 1647,215 1037,825 1037,1477 "/>
  <polygon class="fil1" points="1036,1478 1647,872 2257,1477 2245,1489 1647,896 1048,1491 "/>
  <polygon class="fil8" points="1646,871 1647,215 2257,825 2257,1477 "/>
  <polygon class="fil1" points="1048,1491 1647,896 2246,1490 2156,1580 1647,1076 1140,1583 "/>
  <path class="fil9" d="M4553 1154c0,105 -52,157 -157,157l-462 0 0 317 -158 0 0 -791 620 0c22,0 42,4 61,12 19,9 35,20 50,34 14,14 25,31 34,51 8,19 12,39 12,61l0 159zm-157 0l0 -159 -462 0 0 159 462 0z"/>
  <polygon id="1" class="fil9" points="5112,1628 4954,1628 4954,837 5112,837 "/>
  <polygon id="2" class="fil9" points="6335,1628 6238,1628 5706,1091 5706,1628 5546,1628 5546,837 5679,837 6179,1352 6179,837 6335,837 "/>
  <polygon id="3" class="fil9" points="7559,1628 7462,1628 6929,1091 6929,1628 6769,1628 6769,837 6903,837 7403,1352 7403,837 7559,837 "/>
  <path id="4" class="fil9" d="M8777 1628l-158 0 0 -317 -474 0 0 317 -157 0 0 -633c0,-49 14,-88 43,-116 29,-28 67,-42 114,-42l474 0c22,0 44,4 63,12 20,8 37,19 51,33 14,14 24,31 32,50 8,20 12,41 12,63l0 633zm-158 -474l0 -159 -474 0 0 159 474 0z"/>
  <path id="5" class="fil9" d="M9958 1628l-606 0c-105,0 -157,-53 -157,-158l0 -475c0,-44 13,-82 40,-112 26,-31 65,-46 117,-46l606 0 0 158 -606 0 0 475 606 0 0 158z"/>
  <polygon id="6" class="fil9" points="10986,1628 10354,1628 10354,837 10513,837 10513,1470 10986,1470 "/>
  <polygon id="7" class="fil9" points="12003,1628 11371,1628 11371,837 12002,837 12002,995 11529,995 11529,1154 12000,1154 12000,1311 11529,1311 11529,1470 12003,1470 "/>
  <path class="fil9" d="M4012 1955l-191 0 0 62 182 0c29,0 48,5 58,15 10,10 15,28 15,54l0 40c0,27 -5,45 -15,55 -10,9 -29,14 -58,14l-180 0c-28,0 -48,-5 -58,-14 -10,-10 -15,-28 -15,-55l0 -8 60 -12 0 34 206 0 0 -66 -182 0c-28,0 -47,-5 -57,-15 -10,-9 -15,-27 -15,-54l0 -32c0,-27 5,-45 15,-54 10,-10 29,-15 57,-15l166 0c27,0 46,5 56,14 11,9 16,26 16,50l0 6 -60 14 0 -33z"/>
  <polygon id="1" class="fil9" points="4288,2195 4288,1904 4355,1904 4355,2017 4567,2017 4567,1904 4635,1904 4635,2195 4567,2195 4567,2070 4355,2070 4355,2195 "/>
  <polygon id="2" class="fil9" points="4855,2195 4855,1904 4923,1904 4923,2195 "/>
  <path id="3" class="fil9" d="M5362 1954l-152 0 0 78 152 0c12,0 20,-2 24,-6 4,-3 7,-9 7,-18l0 -31c0,-8 -3,-14 -7,-18 -4,-3 -12,-5 -24,-5zm-219 241l0 -291 249 0c23,0 40,4 50,13 11,9 16,24 16,43l0 65c0,20 -5,34 -16,43 -10,9 -27,14 -50,14l-182 0 0 113 -67 0z"/>
  <path id="4" class="fil9" d="M5853 1954l-153 0 0 78 153 0c11,0 19,-2 24,-6 4,-3 6,-9 6,-18l0 -31c0,-8 -2,-14 -6,-18 -5,-3 -13,-5 -24,-5zm-219 241l0 -291 249 0c23,0 40,4 50,13 10,9 16,24 16,43l0 65c0,20 -6,34 -16,43 -10,9 -27,14 -50,14l-183 0 0 113 -66 0z"/>
  <polygon id="5" class="fil9" points="6124,2195 6124,1904 6192,1904 6192,2195 "/>
  <path id="6" class="fil9" d="M6412 2195l0 -291 46 0 205 172c7,5 13,11 18,16 6,5 11,10 15,15 -1,-16 -2,-28 -2,-34 -1,-7 -1,-12 -1,-16l0 -153 61 0 0 291 -46 0 -214 -180c-5,-4 -9,-8 -13,-12 -4,-4 -8,-8 -11,-11 1,9 2,17 2,25 1,8 1,15 1,21l0 157 -61 0z"/>
  <path id="7" class="fil9" d="M7247 1956l-212 0 0 184 212 0 0 -64 -111 0 0 -50 177 0 0 100c0,27 -5,45 -15,55 -10,9 -29,14 -57,14l-201 0c-28,0 -47,-5 -57,-14 -10,-10 -15,-28 -15,-55l0 -153c0,-27 5,-45 15,-54 10,-10 29,-15 57,-15l201 0c28,0 47,5 57,14 10,10 15,27 15,52l0 7 -66 12 0 -33z"/>
  <path id="8" class="fil9" d="M7998 1955l-190 0 0 62 181 0c29,0 48,5 58,15 10,10 15,28 15,54l0 40c0,27 -5,45 -15,55 -10,9 -29,14 -58,14l-180 0c-28,0 -48,-5 -57,-14 -11,-10 -16,-28 -16,-55l0 -8 60 -12 0 34 206 0 0 -66 -181 0c-29,0 -48,-5 -58,-15 -10,-9 -15,-27 -15,-54l0 -32c0,-27 5,-45 15,-54 10,-10 29,-15 58,-15l165 0c27,0 46,5 56,14 11,9 16,26 16,50l0 6 -60 14 0 -33z"/>
  <path id="9" class="fil9" d="M8268 1973c0,-27 5,-45 14,-54 10,-10 29,-15 58,-15l214 0c28,0 48,5 57,15 10,9 15,27 15,54l0 153c0,27 -5,45 -15,55 -9,9 -29,14 -57,14l-214 0c-29,0 -48,-5 -58,-14 -9,-10 -14,-28 -14,-55l0 -153zm67 167l224 0 0 -184 -224 0 0 184z"/>
  <polygon id="10" class="fil9" points="8840,2195 8840,1904 8908,1904 8908,2140 9126,2140 9126,2195 "/>
  <path id="11" class="fil9" d="M9355 1904l0 236 193 0 0 -236 68 0 0 222c0,27 -5,45 -15,55 -10,9 -29,14 -58,14l-184 0c-28,0 -47,-5 -57,-14 -10,-10 -15,-28 -15,-55l0 -222 68 0z"/>
  <polygon id="12" class="fil9" points="9971,1956 9971,2195 9904,2195 9904,1956 9770,1956 9770,1904 10106,1904 10106,1956 "/>
  <polygon id="13" class="fil9" points="10260,2195 10260,1904 10328,1904 10328,2195 "/>
  <path id="14" class="fil9" d="M10542 1973c0,-27 5,-45 14,-54 10,-10 29,-15 58,-15l214 0c28,0 48,5 57,15 10,9 15,27 15,54l0 153c0,27 -5,45 -15,55 -9,9 -29,14 -57,14l-214 0c-29,0 -48,-5 -58,-14 -9,-10 -14,-28 -14,-55l0 -153zm67 167l224 0 0 -184 -224 0 0 184z"/>
  <path id="15" class="fil9" d="M11114 2195l0 -291 46 0 205 172c7,5 13,11 19,16 5,5 10,10 14,15 -1,-16 -2,-28 -2,-34 0,-7 -1,-12 -1,-16l0 -153 61 0 0 291 -46 0 -214 -180c-5,-4 -9,-8 -13,-12 -4,-4 -8,-8 -11,-11 1,9 2,17 2,25 1,8 1,15 1,21l0 157 -61 0z"/>
  <path id="16" class="fil9" d="M11928 1955l-190 0 0 62 181 0c29,0 48,5 58,15 10,10 15,28 15,54l0 40c0,27 -5,45 -15,55 -10,9 -29,14 -58,14l-180 0c-28,0 -47,-5 -57,-14 -10,-10 -15,-28 -15,-55l0 -8 59 -12 0 34 206 0 0 -66 -181 0c-29,0 -48,-5 -58,-15 -10,-9 -15,-27 -15,-54l0 -32c0,-27 5,-45 15,-54 10,-10 29,-15 58,-15l165 0c27,0 46,5 56,14 11,9 16,26 16,50l0 6 -60 14 0 -33z"/>
  <rect class="fil1" x="3769" y="2415" width="8222.95" height="84.0616"/>
  <path class="fil10" d="M3836 2748l175 0c0,14 -3,28 -8,42l-127 0 -17 94 102 0c0,14 -2,28 -7,41l-102 0c-4,19 -7,38 -10,56 -3,19 -7,38 -10,57l131 0c-1,7 -1,14 -2,20 -1,6 -2,13 -5,20l-178 0 58 -330z"/>
  <path id="1" class="fil10" d="M6800 2748l167 0c-1,8 -2,15 -3,22 0,6 -2,13 -5,20l-119 0 -17 96 100 0c-1,15 -3,29 -7,42l-100 0 -27 150c-8,1 -15,2 -23,2 -5,0 -9,0 -13,0 -4,-1 -7,-1 -11,-2l58 -330z"/>
  <path id="2" class="fil10" d="M8680 3078c0,-8 0,-17 2,-25 2,-9 4,-17 6,-26 5,0 9,-1 13,-1 4,0 9,0 13,0 4,0 9,0 13,0 4,0 8,1 12,1 0,9 0,18 -2,26 -2,8 -3,16 -6,25 -5,1 -9,1 -13,2 -5,0 -9,0 -13,0 -4,0 -9,0 -13,0 -4,-1 -8,-1 -12,-2z"/>
  <path id="3" class="fil10" d="M8865 3078c0,-8 0,-17 2,-25 2,-9 4,-17 6,-26 5,0 9,-1 13,-1 4,0 9,0 13,0 4,0 9,0 13,0 4,0 8,1 12,1 0,9 0,18 -2,26 -2,8 -4,16 -6,25 -5,1 -9,1 -14,2 -4,0 -8,0 -12,0 -4,0 -9,0 -13,0 -4,-1 -8,-1 -12,-2z"/>
  <path id="4" class="fil10" d="M9050 3078c0,-8 0,-17 2,-25 2,-9 4,-17 6,-26 5,0 9,-1 13,-1 4,0 9,0 13,0 4,0 9,0 13,0 4,0 8,1 12,1 0,9 -1,18 -2,26 -2,8 -4,16 -6,25 -5,1 -9,1 -14,2 -4,0 -8,0 -12,0 -4,0 -9,0 -13,0 -4,-1 -8,-1 -12,-2z"/>
  <path id="5" class="fil10" d="M4109 2814c3,0 6,-1 10,-1 4,0 7,0 11,0 3,0 6,0 10,0 3,0 6,1 9,1l26 222 97 -222c3,0 6,-1 10,-1 3,0 7,0 10,0 3,0 7,0 11,0 3,0 6,1 9,1l-121 264c-4,1 -8,1 -12,1 -5,1 -8,1 -12,1 -4,0 -7,0 -11,-1 -4,0 -7,0 -11,-1l-36 -264z"/>
  <path id="6" class="fil10" d="M4434 2814l140 0c0,11 -2,22 -5,33l-103 0 -13 76 82 0c0,11 -2,22 -6,33l-82 0c-2,15 -5,30 -8,45 -2,14 -5,30 -7,45l105 0c-1,6 -2,12 -2,16 -1,5 -2,10 -4,16l-143 0 46 -264z"/>
  <path id="7" class="fil10" d="M4704 2814c10,-2 19,-3 27,-3 9,-1 17,-1 26,-1 11,0 21,1 32,3 10,2 20,6 28,11 8,5 15,12 20,21 5,8 7,19 7,31 0,13 -2,25 -6,35 -4,9 -10,18 -16,25 -6,7 -13,13 -20,18 -8,5 -15,9 -21,12l48 112c-7,1 -15,1 -21,1 -8,0 -14,0 -20,-1l-51 -123 3 -1c2,0 4,-1 8,-2 4,-2 8,-4 13,-7 5,-2 10,-6 15,-9 5,-4 10,-9 14,-14 4,-5 8,-11 11,-18 2,-6 4,-13 4,-21 0,-15 -5,-26 -13,-32 -8,-6 -20,-10 -34,-10 -4,0 -8,1 -11,1 -3,0 -6,0 -10,1l-42 235c-3,1 -6,1 -9,1 -3,0 -7,0 -10,0 -3,0 -6,0 -9,0 -4,0 -7,0 -9,-1l46 -264z"/>
  <path id="8" class="fil10" d="M5005 2982l-50 -168c3,0 7,-1 12,-1 4,0 9,0 13,0 5,0 10,1 15,1l35 130 76 -130c6,0 13,-1 21,-1 3,0 6,0 10,0 3,0 6,1 9,1l-104 169 -16 95c-7,1 -13,1 -20,1 -7,0 -13,0 -18,-1l17 -96z"/>
  <path id="9" class="fil10" d="M5300 2847l-66 0c0,-5 1,-11 2,-16 1,-6 2,-11 4,-17l169 0c0,6 -1,11 -2,17 -1,5 -2,10 -4,16l-66 0 -40 231c-6,1 -13,1 -19,1 -4,0 -7,0 -10,0 -3,0 -6,0 -9,-1l41 -231z"/>
  <path id="10" class="fil10" d="M5531 2814c3,0 6,-1 10,-1 3,0 6,0 9,0 3,0 6,0 10,0 3,0 6,1 9,1l-19 109 101 0 19 -109c3,0 6,-1 9,-1 4,0 7,0 10,0 3,0 6,0 10,0 3,0 6,1 9,1l-46 264c-3,1 -6,1 -10,1 -3,1 -6,1 -10,1 -3,0 -6,0 -9,-1 -4,0 -6,0 -9,-1l21 -122 -101 0 -21 122c-3,1 -6,1 -10,1 -3,1 -6,1 -10,1 -3,0 -6,0 -9,-1 -3,0 -6,0 -9,-1l46 -264z"/>
  <path id="11" class="fil10" d="M5853 2814c3,0 6,-1 10,-1 3,0 6,0 9,0 4,0 7,0 10,0 3,0 6,1 9,1l-46 264c-4,1 -7,1 -10,1 -3,1 -6,1 -10,1 -3,0 -7,0 -10,-1 -3,0 -6,0 -8,-1l46 -264z"/>
  <path id="12" class="fil10" d="M6035 2814c3,0 6,-1 9,-1 4,0 7,0 10,0 6,0 11,1 16,1l74 199 35 -199c2,0 5,0 7,0 2,-1 5,-1 7,-1l9 0 12 1 -47 264c-2,1 -5,1 -8,1 -3,0 -6,0 -9,0 -3,0 -6,0 -9,0 -2,0 -5,0 -8,-1l-74 -198 -35 198c-4,1 -9,1 -14,1l-9 0 -12 -1 46 -264z"/>
  <path id="13" class="fil10" d="M6479 2942c3,0 6,-1 9,-1 3,0 7,0 10,0 3,0 6,0 9,0 3,0 6,1 9,1 -4,22 -8,43 -11,64 -4,21 -8,43 -12,64 -9,4 -21,7 -34,9 -14,3 -27,4 -39,4 -16,0 -30,-3 -43,-8 -12,-4 -23,-11 -31,-20 -9,-9 -15,-20 -20,-33 -4,-12 -6,-26 -6,-41 0,-23 3,-44 9,-65 6,-21 15,-39 27,-55 12,-15 27,-28 45,-37 18,-9 39,-14 63,-14 12,0 23,1 32,3 10,2 18,4 24,7 -1,5 -3,11 -4,15 -2,5 -4,10 -7,16 -7,-3 -14,-5 -21,-6 -7,-1 -15,-2 -24,-2 -18,0 -34,4 -47,11 -13,8 -24,18 -32,31 -9,12 -15,27 -19,43 -4,16 -6,33 -6,50 0,24 6,42 18,54 12,12 28,18 49,18 6,0 12,-1 18,-2 6,0 11,-2 15,-3l19 -103z"/>
  <path id="14" class="fil10" d="M7085 2814c9,-2 18,-3 27,-3 9,-1 17,-1 25,-1 11,0 22,1 33,3 10,2 20,6 28,11 8,5 14,12 19,21 5,8 8,19 8,31 0,13 -2,25 -7,35 -4,9 -9,18 -15,25 -6,7 -13,13 -21,18 -7,5 -14,9 -20,12l48 112c-8,1 -15,1 -22,1 -7,0 -13,0 -19,-1l-52 -123 4 -1c2,0 4,-1 8,-2 4,-2 8,-4 13,-7 5,-2 10,-6 15,-9 5,-4 10,-9 14,-14 4,-5 8,-11 10,-18 3,-6 4,-13 4,-21 0,-15 -4,-26 -12,-32 -8,-6 -20,-10 -35,-10 -4,0 -7,1 -10,1 -3,0 -7,0 -11,1l-41 235c-3,1 -6,1 -9,1 -4,0 -7,0 -10,0 -3,0 -6,0 -10,0 -3,0 -6,0 -9,-1l47 -264z"/>
  <path id="15" class="fil10" d="M7373 2814l140 0c0,11 -2,22 -6,33l-102 0 -13 76 81 0c0,11 -2,22 -6,33l-81 0c-3,15 -5,30 -8,45 -3,14 -5,30 -8,45l105 0c-1,6 -1,12 -2,16 0,5 -2,10 -4,16l-142 0 46 -264z"/>
  <path id="16" class="fil10" d="M7643 2814c3,0 6,-1 9,-1 4,0 7,0 10,0 3,0 7,0 10,0 3,0 6,1 9,1l-47 264c-3,1 -6,1 -9,1 -3,1 -7,1 -10,1 -3,0 -7,0 -10,-1 -3,0 -6,0 -8,-1l46 -264z"/>
  <path id="17" class="fil10" d="M7946 2942c3,0 6,-1 9,-1 4,0 7,0 10,0 3,0 6,0 9,0 3,0 6,1 9,1 -4,22 -7,43 -11,64 -4,21 -8,43 -11,64 -10,4 -21,7 -35,9 -13,3 -26,4 -39,4 -16,0 -30,-3 -42,-8 -13,-4 -24,-11 -32,-20 -9,-9 -15,-20 -20,-33 -4,-12 -6,-26 -6,-41 0,-23 3,-44 9,-65 6,-21 15,-39 27,-55 12,-15 27,-28 45,-37 18,-9 39,-14 63,-14 12,0 23,1 32,3 10,2 18,4 24,7 -1,5 -3,11 -4,15 -2,5 -4,10 -7,16 -7,-3 -14,-5 -21,-6 -7,-1 -15,-2 -24,-2 -18,0 -34,4 -47,11 -13,8 -24,18 -32,31 -8,12 -15,27 -19,43 -4,16 -6,33 -6,50 0,24 6,42 18,54 12,12 28,18 49,18 6,0 12,-1 18,-2 6,0 11,-2 16,-3l18 -103z"/>
  <path id="18" class="fil10" d="M8144 2814c3,0 6,-1 9,-1 4,0 7,0 10,0 3,0 6,0 10,0 3,0 6,1 9,1l-19 109 101 0 19 -109c3,0 6,-1 9,-1 3,0 7,0 10,0 3,0 6,0 10,0 3,0 6,1 9,1l-46 264c-3,1 -7,1 -10,1 -3,1 -6,1 -10,1 -3,0 -7,0 -10,-1 -3,0 -6,0 -8,-1l21 -122 -101 0 -21 122c-3,1 -6,1 -10,1 -3,1 -7,1 -10,1 -3,0 -6,0 -9,-1 -4,0 -6,0 -9,-1l46 -264z"/>
  <path id="19" class="fil10" d="M8500 2847l-65 0c0,-5 0,-11 1,-16 1,-6 3,-11 5,-17l168 0c0,6 0,11 -1,17 -1,5 -2,10 -4,16l-66 0 -40 231c-7,1 -13,1 -20,1 -3,0 -6,0 -9,0 -3,0 -6,0 -9,-1l40 -231z"/>
  <path id="20" class="fil10" d="M9402 2925c-10,-4 -20,-8 -28,-13 -8,-4 -15,-10 -21,-17 -6,-6 -10,-14 -14,-23 -3,-9 -4,-20 -4,-33 0,-16 2,-30 8,-42 5,-12 13,-22 22,-30 10,-8 22,-14 36,-18 13,-4 29,-6 46,-6 16,0 30,1 44,4 14,3 28,7 43,12 -2,18 -7,35 -15,52 -4,-2 -9,-4 -14,-5 -5,-2 -10,-4 -15,-5 -5,-1 -11,-2 -18,-3 -7,-1 -15,-1 -23,-1 -5,0 -11,0 -16,1 -5,1 -10,3 -14,5 -5,3 -8,6 -11,11 -3,5 -4,11 -4,19 0,6 1,11 3,15 2,4 5,8 9,11 4,3 8,5 12,7 5,2 9,4 14,6l28 10c11,5 22,10 31,15 10,4 18,10 24,18 7,7 12,16 16,26 3,10 5,23 5,38 0,15 -3,30 -8,42 -6,13 -14,24 -25,33 -11,10 -24,17 -40,22 -15,5 -33,8 -54,8 -10,0 -19,0 -27,-1 -8,-1 -16,-2 -23,-3 -7,-1 -14,-3 -21,-5 -7,-2 -14,-5 -22,-8 1,-9 2,-18 5,-28 2,-10 5,-19 9,-29 13,5 25,9 36,12 11,2 23,4 36,4 19,0 35,-4 46,-11 11,-7 16,-18 16,-33 0,-7 -1,-14 -4,-18 -2,-5 -6,-9 -10,-13 -4,-3 -9,-6 -14,-8 -5,-3 -10,-5 -16,-7l-28 -11z"/>
  <path id="21" class="fil10" d="M9804 3084c-24,0 -46,-4 -64,-13 -18,-9 -33,-20 -44,-36 -12,-15 -21,-33 -26,-53 -6,-21 -9,-44 -9,-68 0,-24 3,-47 9,-68 5,-21 14,-39 26,-55 11,-15 26,-27 44,-35 18,-9 40,-13 64,-13 25,0 47,4 65,13 18,8 33,20 44,35 12,16 20,34 26,55 6,21 9,44 9,68 0,24 -3,47 -9,68 -6,20 -14,38 -26,53 -11,16 -26,27 -44,36 -18,9 -40,13 -65,13zm0 -56c48,0 72,-38 72,-114 0,-38 -6,-66 -18,-85 -11,-19 -29,-29 -53,-29 -48,0 -72,38 -72,114 0,76 24,114 71,114z"/>
  <path id="22" class="fil10" d="M10079 2748c11,-2 22,-3 32,-3 11,0 22,1 34,3l0 273 114 0c1,5 1,10 2,14 0,5 0,10 0,14 0,5 0,10 0,14 -1,5 -1,10 -2,15l-180 0 0 -330z"/>
  <path id="23" class="fil10" d="M10311 2748c6,0 12,-1 18,-2 7,0 13,-1 18,-1 12,0 24,1 37,3l72 261 73 -261c6,-1 12,-1 18,-2 5,0 11,0 17,0 5,0 11,0 17,0 5,1 11,1 17,2l-106 330c-7,1 -13,2 -19,2 -6,1 -12,1 -19,1 -6,0 -12,0 -18,-1 -6,0 -12,-1 -19,-2l-106 -330z"/>
  <path id="24" class="fil10" d="M10710 2748l188 0c2,9 2,19 2,28 0,10 0,20 -2,29l-121 0 0 72 96 0c2,10 3,19 3,28 0,10 -1,20 -3,29l-96 0 0 87 124 0c2,10 3,19 3,28 0,11 -1,20 -3,29l-191 0 0 -330z"/>
  <path id="25" class="fil10" d="M11031 2748c13,-1 26,-3 40,-4 14,-1 30,-1 47,-1 58,0 102,14 132,43 30,29 45,72 45,129 0,58 -15,101 -46,128 -30,27 -76,41 -136,41 -16,0 -30,-1 -43,-2 -13,-1 -26,-2 -39,-4l0 -330zm67 277c3,0 7,1 11,1 4,0 9,0 16,0 14,0 27,-1 39,-4 12,-4 22,-9 31,-18 9,-9 16,-20 21,-34 6,-15 8,-33 8,-56 0,-22 -2,-40 -8,-55 -5,-15 -12,-26 -21,-35 -9,-9 -19,-15 -30,-18 -12,-4 -24,-5 -37,-5 -4,0 -9,0 -15,0 -5,0 -10,0 -15,1l0 223z"/>
  <path id="26" class="fil10" d="M11528 2748c12,-2 24,-3 36,-3 11,0 23,1 35,3l-4 225c-11,2 -21,3 -31,3 -10,0 -21,-1 -31,-3l-5 -225zm2 330c-2,-11 -3,-22 -3,-33 0,-11 1,-22 3,-34 11,-2 23,-3 34,-3 11,0 22,1 34,3 1,12 2,23 2,33 0,12 -1,23 -2,34 -12,2 -23,3 -34,3 -11,0 -23,-1 -34,-3z"/>
  <path id="27" class="fil10" d="M11741 2748c12,-2 24,-3 35,-3 12,0 24,1 36,3l-5 225c-10,2 -21,3 -30,3 -11,0 -21,-1 -32,-3l-4 -225zm2 330c-2,-11 -3,-22 -3,-33 0,-11 1,-22 3,-34 11,-2 22,-3 33,-3 11,0 23,1 34,3 2,12 3,23 3,33 0,12 -1,23 -3,34 -11,2 -23,3 -33,3 -12,0 -23,-1 -34,-3z"/>
  <path id="28" class="fil10" d="M11953 2748c12,-2 24,-3 36,-3 12,0 24,1 36,3l-5 225c-11,2 -21,3 -31,3 -10,0 -21,-1 -31,-3l-5 -225zm2 330c-2,-11 -2,-22 -2,-33 0,-11 0,-22 2,-34 12,-2 23,-3 34,-3 11,0 22,1 34,3 2,12 3,23 3,33 0,12 -1,23 -3,34 -12,2 -23,3 -34,3 -11,0 -22,-1 -34,-3z"/>
  <rect class="fil11" width="12389" height="3375"/>
 </g>
</svg>
